<?xml version="1.0" encoding="utf-8"?>
<!-- Generator: Adobe Illustrator 15.1.0, SVG Export Plug-In . SVG Version: 6.00 Build 0)  -->
<!DOCTYPE svg PUBLIC "-//W3C//DTD SVG 1.1//EN" "http://www.w3.org/Graphics/SVG/1.1/DTD/svg11.dtd">
<svg version="1.1" xmlns="http://www.w3.org/2000/svg" xmlns:xlink="http://www.w3.org/1999/xlink" x="0px" y="0px"
	 width="1228.395px" height="76px" viewBox="0 0 1228.395 76" enable-background="new 0 0 1228.395 76" xml:space="preserve">
<g id="Layer_1">
	<path fill="none" stroke="#000000" stroke-miterlimit="10" d="M1063.395-20"/>
	<path fill="none" stroke="#000000" stroke-miterlimit="10" d="M1228.395,76"/>
	<path fill="none" stroke="#000000" stroke-miterlimit="10" d="M1228.395,0"/>
	<path fill="none" stroke="#000000" stroke-miterlimit="10" d="M1228.395,76"/>
	<polygon fill="#932C89" points="1100.395,0 1228.395,76 1228.395,0 	"/>
	<polygon fill="#682F80" points="1070.395,76 1070.395,0 1100.395,0 1228.395,76 	"/>
	<polygon fill="#3B2170" points="1037.395,0 1070.395,0 1070.395,76 919.395,76 	"/>
	<polygon fill="#24185B" points="793.395,0 769.395,0 769.395,76 919.395,76 919.395,68 	"/>
	<polygon fill="#5C1A72" points="919.395,0 919.395,76 1037.395,0 	"/>
	<polyline fill="#55156E" points="919.395,0 919.395,76 793.395,0 	"/>
	<polygon fill="#501A72" points="608.395,76 738.395,0 769.395,0 769.395,76 	"/>
	<polygon fill="#7D3092" points="618.895,0 618.895,73.222 738.395,0 	"/>
	<polygon fill="#55539E" points="493.812,0 618.895,73.222 618.895,0 	"/>
	<polygon fill="#2B498E" points="464.395,0 464.395,77 624.958,76.165 493.812,0 	"/>
	<polygon fill="#2D70A6" points="302.395,76 430.966,0 464.395,0 464.395,76 	"/>
	<polygon fill="#6A84B6" points="310.966,71 310.966,0 430.966,0 	"/>
	<polyline fill="#527DB0" points="185.728,0 310.966,71 310.966,0 	"/>
	<polygon fill="#3571AC" points="159.728,0 159.728,76 310.966,76 310.966,71 185.728,0 	"/>
	<polygon fill="#2971AA" points="1.729,76 131.52,0 160.395,0 160.395,76 	"/>
	<polygon fill="#547B9F" points="7.645,69.5 7.645,72.171 132.895,0 	"/>
	<polygon fill="#547B9F" points="1.726,76 132.145,0 0,0 0,76 	"/>
</g>
<g id="Layer_2">
</g>
</svg>
